<?xml version="1.0" encoding="UTF-8"?>
<svg width="263px" height="281px" viewBox="0 0 263 281" version="1.1" xmlns="http://www.w3.org/2000/svg" xmlns:xlink="http://www.w3.org/1999/xlink">
    <title>形状结合</title>
    <g id="页面-1" stroke="none" stroke-width="1" fill="none" fill-rule="evenodd">
        <path d="M145.5,4.08290377 L248.269836,63.4170962 C256.933066,68.4188145 262.269836,77.662371 262.269836,87.6658075 L262.269836,206.334192 C262.269836,216.337629 256.933066,225.581186 248.269836,230.582904 L161.870164,280.464615 L161.871094,222.324219 L211.837891,193.37793 L211.837891,100.991211 L161.871094,71.5986328 L161.871094,170.757812 L100.783203,170.757812 L100.783203,71.5986328 L51.4277344,100.991211 L51.4277344,193.37793 L100.783203,222.324219 L100.783164,280.265615 L14.730164,230.582904 C6.06693388,225.581186 0.730164029,216.337629 0.730164029,206.334192 L0.730164029,87.6658075 C0.730164029,77.662371 6.06693388,68.4188145 14.730164,63.4170962 L117.5,4.08290377 C126.16323,-0.91881449 136.83677,-0.91881449 145.5,4.08290377 Z" id="形状结合" fill="#2195B1"></path>
    </g>
</svg>