<svg id="图层_1" data-name="图层 1" xmlns="http://www.w3.org/2000/svg" viewBox="0 0 200 269.08"><defs><style>.cls-1,.cls-2{fill:#2195b1;}.cls-2{fill-rule:evenodd;}</style></defs><path id="修" class="cls-1" d="M117.8,445.85V420.79a38.58,38.58,0,0,1,2.93,5.79A70.89,70.89,0,0,0,136.9,421c1.25.61,2.56,1.17,3.91,1.67q-7.38,4-20.44,7.52,2.44,3.45,3.46,5.25,14-4.37,21.19-8.83h0l-3.5-3.67a56.41,56.41,0,0,0,10.84,2.59c.67-2.23,1.51-4.57,2.5-7a55.09,55.09,0,0,1-10.53-2.12,34.84,34.84,0,0,0,8.32-9h0V401H133.83c1-1.51,1.92-3.08,2.83-4.71h-8.53q-2.8,6.78-10.33,14.38h0v-4.95h-6.44v40.1ZM108.25,455V412.4q2.52-6.88,4.66-14.77h0l-7.52-1.31q-4.19,16.23-10.09,27.09,1.26,5.85,2.27,11.7,1.83-3,3.52-6.21h0V455Zm28.8-41.74a30.55,30.55,0,0,1-7.25-5.58h14.44A28.23,28.23,0,0,1,137.05,413.3Zm-19.25,6.23V411.3a55.87,55.87,0,0,1,4.84,3.82c.93-.92,1.85-1.87,2.74-2.87a33.48,33.48,0,0,0,4.42,4.24,78.24,78.24,0,0,1-12,3Zm6.09,25.25q17.55-4.72,26.2-11.4h0l-4-4.6Q137.2,434.93,120,439A65.54,65.54,0,0,1,123.89,444.78Zm-4.06,10.62q22.44-3.47,35.27-14.14h0l-4.24-4.78q-13.37,9.5-34.31,12.42A57.63,57.63,0,0,1,119.83,455.4Z" transform="translate(-25.56 -236.7)"/><path id="库" class="cls-1" d="M172.21,455.22q7.15-10.56,7.16-32.4h0V408.43H225.2v-6.92H204.94q-1.16-3.22-2-5.31h0l-9.78,1.07,2,4.24H171.25v21.25q.12,16.77-5.07,25.3A87.62,87.62,0,0,1,172.21,455.22Zm35.57-.66v-8.71h17.78v-6.92H207.78v-4.18h15V428h-15v-5.61h-8V428h-8.35l4.2-7.46h28.08v-6.92H199.36l2-3.76L193,408.55c-.82,1.71-1.64,3.39-2.48,5H180.8v6.92h6.09c-1.43,2.59-2.88,5.07-4.36,7.46h0v6.8h17.25v4.18H178.89v6.92h20.89v8.71Z" transform="translate(-25.56 -236.7)"/><path id="形状结合" class="cls-2" d="M132.19,238.48l48.69,28.11a13.27,13.27,0,0,1,6.63,11.49v56.21a13.27,13.27,0,0,1-6.63,11.49L140,369.41V341.87l23.67-13.72V284.39L140,270.46v47H111v-47L87.63,284.39v43.76L111,341.87v27.44L70.25,345.78a13.26,13.26,0,0,1-6.64-11.49V278.08a13.26,13.26,0,0,1,6.64-11.49l48.68-28.11A13.25,13.25,0,0,1,132.19,238.48Z" transform="translate(-25.56 -236.7)"/><path id="医" class="cls-1" d="M82.53,453.25v-6.92H34.91v-40.7H46.25a48.92,48.92,0,0,1-9.19,13.73q3,2.33,5.49,4.65H36.82v6.8H52.45q-4,5.07-15.22,8.24,3,3.52,5.55,7,10-3.93,15.1-9.61,9.85,5.25,17.37,9.49h0l4.3-6.92q-9.26-4.42-18-8.18H80.92V424H63.25a49,49,0,0,0,.54-5.91H78.65v-6.8H52c.71-1.27,1.39-2.59,2-3.94h0l-6.5-1.73H82.23v-6.92H27v54.54ZM55.26,424H43.56q2.27-2.86,4.3-5.91h8a39.25,39.25,0,0,1-.59,5.91Z" transform="translate(-25.56 -236.7)"/><polygon id="K" class="cls-1" points="146.41 268.52 146.41 258.58 151.79 253.08 160.83 268.52 169.43 268.52 156.37 248.44 168.75 235.63 159.82 235.63 146.41 250.23 146.41 235.63 139.76 235.63 139.76 268.52 146.41 268.52"/><polygon id="I" class="cls-1" points="41.94 268.52 41.94 235.63 35.3 235.63 35.3 268.52 41.94 268.52"/><path id="U" class="cls-1" d="M139.85,505.78a17,17,0,0,0,6.33-1,10.09,10.09,0,0,0,3.87-2.69,9.29,9.29,0,0,0,2-4.12,45.39,45.39,0,0,0,.53-8.37V472.33h-6.64v18.2a37.58,37.58,0,0,1-.29,5.58,4.52,4.52,0,0,1-1.73,2.84,6.68,6.68,0,0,1-4.26,1.16,7.07,7.07,0,0,1-4.39-1.23,5.32,5.32,0,0,1-2-3.24,38,38,0,0,1-.24-5.49h0V472.33h-6.65v17.55a39.3,39.3,0,0,0,.66,8.34,9,9,0,0,0,1.86,3.65,10.2,10.2,0,0,0,3.85,2.83A18.3,18.3,0,0,0,139.85,505.78Z" transform="translate(-25.56 -236.7)"/><path id="U-2" data-name="U" class="cls-1" d="M212.8,505.78a16.94,16.94,0,0,0,6.33-1A9.94,9.94,0,0,0,223,502.1a9.19,9.19,0,0,0,2-4.12,44.27,44.27,0,0,0,.54-8.37V472.33h-6.65v18.2a36.23,36.23,0,0,1-.29,5.58,4.55,4.55,0,0,1-1.72,2.84,6.71,6.71,0,0,1-4.27,1.16,7,7,0,0,1-4.38-1.23,5.28,5.28,0,0,1-2-3.24,36,36,0,0,1-.25-5.49h0V472.33H199.3v17.55a39.43,39.43,0,0,0,.65,8.34,9.13,9.13,0,0,0,1.86,3.65,10.2,10.2,0,0,0,3.85,2.83A18.3,18.3,0,0,0,212.8,505.78Z" transform="translate(-25.56 -236.7)"/><polygon id="Y" class="cls-1" points="18.67 268.52 18.67 254.72 30.76 235.63 23.11 235.63 15.53 248.64 7.79 235.63 0 235.63 12.05 254.68 12.05 268.52 18.67 268.52"/><polygon id="X" class="cls-1" points="58.72 268.52 66.03 257.14 73.33 268.52 81.34 268.52 70.09 251.6 80.33 235.63 72.63 235.63 66.17 246.19 59.57 235.63 51.81 235.63 62 251.35 50.76 268.52 58.72 268.52"/><polygon id="I-2" data-name="I" class="cls-1" points="92.63 268.52 92.63 235.63 85.99 235.63 85.99 268.52 92.63 268.52"/></svg>